# xmcd
#
# Track frame offsets: 
#        150
#        25601
#        41721
#        63869
#        87109
#        105882
#        128325
#        144673
#        161330
#        178331
#        202659
#        223810
#        242791
#        261170
#        280900
#        302124
#
# Disc length: 4230 seconds
#
# Revision: 1
# Processed by: cddbd v1.5.2PL0 Copyright (c) Steve Scherf et al.
# Submitted via: ExactAudioCopy v1.3
#
DISCID=d5108410
DTITLE=Nicki Parrott - The Songs of Four Seasons
DYEAR=2013
DGENRE=Jazz
TTITLE0=It Might As Well Be Spring
TTITLE1=Cherry Pink And Apple Blossam White
TTITLE2=April Showers
TTITLE3=They Say It's Spring
TTITLE4=Summertime
TTITLE5=In The Heat Of The Night
TTITLE6=The Summer Knows
TTITLE7=That Sunday, That Summer
TTITLE8=Autumn Leaves
TTITLE9=Autumn In New York
TTITLE10=Lullaby of the Leaves
TTITLE11=Autumn In Rome
TTITLE12=June in January
TTITLE13=I've Got My Love to Keep Me Warm
TTITLE14=My Favorite Things
TTITLE15=Winter Weather
EXTD=YEAR: 2013
EXTT0=
EXTT1=
EXTT2=
EXTT3=
EXTT4=
EXTT5=
EXTT6=
EXTT7=
EXTT8=
EXTT9=
EXTT10=
EXTT11=
EXTT12=
EXTT13=
EXTT14=
EXTT15=
PLAYORDER=
